<svg xmlns="http://www.w3.org/2000/svg" viewBox="0 0 468 608">
  <style type="text/css">
    .st0{fill:#fff}.st2{fill:#90d7ee}.st3{fill:#456473;stroke:#e75925;stroke-width:6.1656;stroke-miterlimit:10}
  </style>
  <g id="container">
    <path class="st3" d="M104.1 339.8L18.1 531l108-38.4 42.1 105.6 85.9-191z"/>
    <path class="st3" d="M364 339.8L449.9 531l-108-38.4-42.1 105.6-85.8-191z"/>
    <circle cx="234" cy="240.1" r="230.3" fill="#456473" stroke="#e75925" stroke-width="6.166" stroke-miterlimit="10"/>
    <path fill="#e75925" d="M33 181.1h401.9v118H33z"/>
    <path class="st0" d="M99.1 264.1v-48.2h6v42.8h22.3v5.3l-28.3.1zM139.6 264.1v-48.2h31.5v5.3h-25.6v15.5h25v5.3h-25v16.6h25.6v5.3h-31.5v.2zM218.5 264.1l-4.3-10.7h-23.9l-4.3 10.7h-6.9l19.3-48.2h7.4l19.5 48.2h-6.8zm-16.2-41.8l-10.2 25.9h20.4l-10.2-25.9zM235.3 264.1v-48.2h16.5c14.9 0 24.7 10.4 24.7 24s-9.8 24-24.7 24l-16.5.2zm34.9-24c0-10.4-6.6-18.7-18.4-18.7h-10.4v37.5h10.4c11.6-.1 18.4-8.6 18.4-18.8zM289.4 264.1v-48.2h31.5v5.3h-25.6v15.5h25v5.3h-25v16.6h25.6v5.3h-31.5v.2zM361.8 264.1l-12.4-19.2h-9.7v19.2h-6v-48.2H353c8.8 0 15.1 5.7 15.1 14.6 0 8.6-6 13.4-12.5 14l12.9 19.6h-6.7zm.4-33.6c0-5.3-3.9-9.2-9.7-9.2h-12.6v18.4h12.6c5.7.1 9.7-3.7 9.7-9.2z"/>
    <circle class="st2" cx="71.2" cy="240.1" r="10.5"/>
    <circle class="st2" cx="396.8" cy="240.1" r="10.5"/>
    <circle cx="234" cy="240.1" r="205.7" fill="none" stroke="#90d7ee" stroke-width="9.167" stroke-miterlimit="10"/>
    <path class="st0" d="M174.5 102.9c.9-1.1 1.4-2.2 1.4-3.4 0-1.9-1.6-3.3-3.6-3.3-1.7 0-3.4 1.2-3.7 3.3l-2.7-.6c.6-3.3 3.3-5.3 6.4-5.3 3.6 0 6.4 2.4 6.4 6.1 0 1.9-.9 3.7-2.2 5.3-2.7 3.1-2.7 3.1-5.5 6.6h7.7v2.8h-12.6v-1.5l8.4-10z"/>
    <path class="st0" d="M166.3 127.9v-10.2h22.3c.3 1.4.3 2.8.3 4.3 0 15.4-12.6 28.1-28.1 28.1s-28.1-12.6-28.1-28.1 12.6-28.1 28.1-28.1v9.9c-10.1 0-18.2 8.2-18.2 18.2s8.2 18.2 18.2 18.2c8 0 14.9-5.2 17.3-12.4M209.8 120.9c0-7.4.5-10.4 1.6-12.2 1.4-2.2 4.4-3.6 8.3-3.6 3.4 0 6.3 1.1 7.7 2.8 1.2 1.4 1.6 3.1 1.6 5.8v1.6h-6.3c-.2-3.1-.2-3.7-.6-4.4-.5-.8-1.4-1.2-2.5-1.2-1.2 0-2.2.6-2.7 1.4-.6 1.4-.9 3.6-.9 9.8 0 5 .3 8 .6 9.2.3 1.1 1.4 1.6 2.8 1.6 2.5 0 3.1-1.2 3.3-6h6.3c0 4.1-.3 5.5-1.1 7.1-1.2 2.2-4.2 3.4-8.6 3.4-5 0-8.2-1.9-9.2-5.5-.2-1.3-.3-4.9-.3-9.8zM232.7 105.6h9.8c4.7 0 5.5.2 7.1 1.4 1.4 1.2 2.2 3.1 2.2 6.1 0 2.5-.5 4.3-1.4 5.7-.9 1.1-1.7 1.6-4.1 2.1 4.1.5 5.5 2.4 5.5 7.6 0 .9.2 2.5.2 4.6.2 1.4.2 1.7.5 3h-6.7c-.3-1.9-.3-1.9-.3-5.8 0-3.6-.3-5.5-1.1-6.3-.5-.6-1.1-.8-2.7-.8h-3.1v12.6h-6.3v-30.1l.4-.1zm8.8 13.1c2.8 0 3.9-1.2 3.9-4.3 0-1.6-.5-3.1-1.2-3.7-.6-.5-.9-.6-2.5-.6H239v8.6h2.5zM255.8 120.8c0-7 .3-9.6 1.4-11.6 1.4-2.5 4.4-4.1 8.8-4.1 4.7 0 8 1.7 9.2 5 .6 1.6.9 4.7.9 10.7 0 6.4-.3 9.4-1.2 11.1-1.4 2.8-4.6 4.4-8.9 4.4s-7.2-1.4-8.8-4.1c-1.1-1.9-1.4-4.5-1.4-11.4zm10.1 11c1.9 0 3-.9 3.4-2.7.3-1.2.5-5 .5-9.4 0-4.6-.3-7.2-.8-8.3-.5-1.1-1.6-1.6-3.1-1.6-1.7 0-3 .8-3.3 2.1-.3 1.4-.5 4.4-.5 9.2 0 4.1.2 6.7.3 7.9.5 1.8 1.7 2.8 3.5 2.8zM278.3 105.6h6.4l2.1 11c.8 4.1.9 7.6 1.2 14.7 1.4-9.2 1.6-11.9 2.2-14.7l2.4-11h7.1l2.2 11c1.1 5 1.4 8.5 1.6 14.7.5-5.2.9-8.9 1.7-14.7l1.9-11h5.5l-6.1 30.3h-6.9l-2.8-14.1c-.5-2.5-1.1-8.2-1.2-11.3-.9 6.9-.9 7.7-1.6 11.3l-3 14.1h-7l-5.7-30.3zM315.6 105.6h8.5c4.9 0 6.4.3 8 1.4 1.9 1.4 2.8 3.9 3.3 8.6.2 1.9.3 4.3.3 6.4 0 5.5-.3 8.2-1.4 9.9-1.4 2.5-4.2 4.1-8 4.1h-10.7v-30.4zm9 25.6c2.2 0 3.4-.5 3.9-1.6s.6-3 .6-7.9c0-5.3-.2-7.7-.8-9.2-.5-1.4-1.6-1.9-3.6-1.9h-2.8v20.9h2.7v-.3zM198.5 93.6h2.1v56h-2.1z"/>
  <path fill="#FFFFFF" transform="translate(129.55, 370)" d="M21.18-16.87L21.18-14.61L6.60-14.61L6.60 0L3.95 0L3.95-31.28L23.33-31.28L23.33-29.03L6.60-29.03L6.60-16.87L21.18-16.87ZM45.18 0L41.94-8.77L27.74-8.77L24.51 0L21.74 0L33.58-31.28L36.09-31.28L47.93 0L45.18 0ZM34.83-28.06L28.55-11.02L41.10-11.02L34.83-28.06ZM55.19-31.28L55.19-2.23L70.64-2.23L70.64 0L52.53 0L52.53-31.28L55.19-31.28ZM78.38-31.28L78.38-2.23L93.82-2.23L93.82 0L75.71 0L75.71-31.28L78.38-31.28ZM128.18-2.17L128.18 0L108.58 0L108.58-1.98L119.30-14.14L119.30-14.14Q121.97-17.21 123.00-19.21L123.00-19.21L123.00-19.21Q124.03-21.21 124.03-23.10L124.03-23.10L124.03-23.10Q124.03-26.06 122.29-27.79L122.29-27.79L122.29-27.79Q120.55-29.52 117.50-29.52L117.50-29.52L117.50-29.52Q114.34-29.52 112.40-27.50L112.40-27.50L112.40-27.50Q110.45-25.48 110.45-22.26L110.45-22.26L107.89-22.26L107.89-22.26Q107.89-24.90 109.09-27.07L109.09-27.07L109.09-27.07Q110.28-29.24 112.48-30.48L112.48-30.48L112.48-30.48Q114.68-31.71 117.50-31.71L117.50-31.71L117.50-31.71Q121.79-31.71 124.21-29.46L124.21-29.46L124.21-29.46Q126.63-27.20 126.63-23.31L126.63-23.31L126.63-23.31Q126.63-21.12 125.26-18.52L125.26-18.52L125.26-18.52Q123.90-15.92 120.46-12.03L120.46-12.03L111.74-2.17L128.18-2.17ZM151.83-18.78L151.83-13.04L151.83-13.04Q151.83-6.42 149.40-3.00L149.40-3.00L149.40-3.00Q146.97 0.43 142.25 0.43L142.25 0.43L142.25 0.43Q137.61 0.43 135.14-2.93L135.14-2.93L135.14-2.93Q132.67-6.29 132.60-12.72L132.60-12.72L132.60-18.33L132.60-18.33Q132.60-24.92 135.05-28.32L135.05-28.32L135.05-28.32Q137.50-31.71 142.21-31.71L142.21-31.71L142.21-31.71Q146.85-31.71 149.29-28.43L149.29-28.43L149.29-28.43Q151.74-25.16 151.83-18.78L151.83-18.78ZM149.25-12.63L149.25-18.65L149.25-18.65Q149.25-24.02 147.50-26.77L147.50-26.77L147.50-26.77Q145.75-29.52 142.21-29.52L142.21-29.52L142.21-29.52Q138.72-29.52 136.96-26.83L136.96-26.83L136.96-26.83Q135.20-24.15 135.16-18.91L135.16-18.91L135.16-12.76L135.16-12.76Q135.16-7.41 136.97-4.58L136.97-4.58L136.97-4.58Q138.79-1.74 142.25-1.74L142.25-1.74L142.25-1.74Q145.69-1.74 147.46-4.51L147.46-4.51L147.46-4.51Q149.23-7.28 149.25-12.63L149.25-12.63ZM169.32-31.39L169.32 0L166.74 0L166.74-28.19L158.23-25.03L158.23-27.44L168.89-31.39L169.32-31.39ZM200.17-23.22L200.17-23.22L200.17-23.22Q200.17-20.80 198.75-18.87L198.75-18.87L198.75-18.87Q197.33-16.95 195.01-16.05L195.01-16.05L195.01-16.05Q197.72-15.13 199.35-13.06L199.35-13.06L199.35-13.06Q200.99-11 200.99-8.29L200.99-8.29L200.99-8.29Q200.99-4.28 198.26-1.92L198.26-1.92L198.26-1.92Q195.53 0.43 191.04 0.43L191.04 0.43L191.04 0.43Q186.51 0.43 183.79-1.91L183.79-1.91L183.79-1.91Q181.07-4.25 181.07-8.29L181.07-8.29L181.07-8.29Q181.07-10.96 182.64-13.04L182.64-13.04L182.64-13.04Q184.21-15.13 186.94-16.05L186.94-16.05L186.94-16.05Q184.62-16.95 183.24-18.87L183.24-18.87L183.24-18.87Q181.87-20.80 181.87-23.22L181.87-23.22L181.87-23.22Q181.87-27.11 184.37-29.41L184.37-29.41L184.37-29.41Q186.87-31.71 191.00-31.71L191.00-31.71L191.00-31.71Q195.12-31.71 197.65-29.39L197.65-29.39L197.65-29.39Q200.17-27.07 200.17-23.22ZM198.41-8.27L198.41-8.27L198.41-8.27Q198.41-11.19 196.32-13.07L196.32-13.07L196.32-13.07Q194.24-14.95 191.00-14.95L191.00-14.95L191.00-14.95Q187.75-14.95 185.69-13.11L185.69-13.11L185.69-13.11Q183.63-11.26 183.63-8.27L183.63-8.27L183.63-8.27Q183.63-5.29 185.63-3.51L185.63-3.51L185.63-3.51Q187.62-1.74 191.04-1.74L191.04-1.74L191.04-1.74Q194.37-1.74 196.39-3.50L196.39-3.50L196.39-3.50Q198.41-5.26 198.41-8.27ZM197.59-23.25L197.59-23.25L197.59-23.25Q197.59-25.93 195.73-27.73L195.73-27.73L195.73-27.73Q193.88-29.52 191.00-29.52L191.00-29.52L191.00-29.52Q188.07-29.52 186.26-27.79L186.26-27.79L186.26-27.79Q184.44-26.06 184.44-23.25L184.44-23.25L184.44-23.25Q184.44-20.50 186.26-18.82L186.26-18.82L186.26-18.82Q188.07-17.14 191.02-17.14L191.02-17.14L191.02-17.14Q193.92-17.14 195.75-18.83L195.75-18.83L195.75-18.83Q197.59-20.52 197.59-23.25Z"/></g>
</svg>
